HIERARCHY
ROOT hip
{
  OFFSET 0 0 0
  CHANNELS 6 Xposition Yposition Zposition Zrotation Yrotation Xrotation
  JOINT abdomen
  {
    OFFSET 0 20.6881 -0.73152
    CHANNELS 3 Zrotation Xrotation Yrotation
    JOINT chest
    {
      OFFSET 0 11.7043 -0.48768
      CHANNELS 3 Zrotation Xrotation Yrotation
      JOINT neck
      {
        OFFSET 0 22.1894 -2.19456
        CHANNELS 3 Zrotation Xrotation Yrotation
        JOINT head
        {
          OFFSET -0.24384 7.07133 1.2192
          CHANNELS 3 Zrotation Xrotation Yrotation
          JOINT leftEye
          {
            OFFSET 4.14528 8.04674 8.04672
            CHANNELS 3 Zrotation Xrotation Yrotation
            End Site
            {
              OFFSET 1 0 0
            }
          }
          JOINT rightEye
          {
            OFFSET -3.6576 8.04674 8.04672
            CHANNELS 3 Zrotation Xrotation Yrotation
            End Site
            {
              OFFSET 1 0 0
            }
          }
        }
      }
      JOINT rCollar
      {
        OFFSET -2.68224 19.2634 -4.8768
        CHANNELS 3 Zrotation Xrotation Yrotation
        JOINT rShldr
        {
          OFFSET -8.77824 -1.95073 1.46304
          CHANNELS 3 Zrotation Xrotation Yrotation
          JOINT rForeArm
          {
            OFFSET -28.1742 -1.7115 0.48768
            CHANNELS 3 Zrotation Xrotation Yrotation
            JOINT rHand
            {
              OFFSET -22.5879 0.773209 7.07136
              CHANNELS 3 Zrotation Xrotation Yrotation
              JOINT rThumb1
              {
                OFFSET -1.2192 -0.487915 3.41376
                CHANNELS 3 Zrotation Xrotation Yrotation
                JOINT rThumb2
                {
                  OFFSET -3.37035 -0.52449 3.41376
                  CHANNELS 3 Zrotation Xrotation Yrotation
                  End Site
                  {
                    OFFSET -1.78271 -1.18214 1.43049
                  }
                }
              }
              JOINT rIndex1
              {
                OFFSET -7.75947 0.938293 5.60832
                CHANNELS 3 Zrotation Xrotation Yrotation
                JOINT rIndex2
                {
                  OFFSET -2.54057 -0.884171 1.56538
                  CHANNELS 3 Zrotation Xrotation Yrotation
                  End Site
                  {
                    OFFSET -1.62519 -0.234802 1.16502
                  }
                }
              }
              JOINT rMid1
              {
                OFFSET -8.24714 1.18213 3.41376
                CHANNELS 3 Zrotation Xrotation Yrotation
                JOINT rMid2
                {
                  OFFSET -3.10165 -0.590103 1.0647
                  CHANNELS 3 Zrotation Xrotation Yrotation
                  End Site
                  {
                    OFFSET -2.48547 -0.328903 0.83742
                  }
                }
              }
              JOINT rRing1
              {
                OFFSET -8.82822 0.546677 1.51678
                CHANNELS 3 Zrotation Xrotation Yrotation
                JOINT rRing2
                {
                  OFFSET -2.60934 -0.819778 -0.0198488
                  CHANNELS 3 Zrotation Xrotation Yrotation
                  End Site
                  {
                    OFFSET -2.33842 -0.294052 0.168128
                  }
                }
              }
              JOINT rPinky1
              {
                OFFSET -8.27202 -0.0477905 -0.4584
                CHANNELS 3 Zrotation Xrotation Yrotation
                JOINT rPinky2
                {
                  OFFSET -1.82734 -0.647385 -0.700984
                  CHANNELS 3 Zrotation Xrotation Yrotation
                  End Site
                  {
                    OFFSET -1.69225 -0.51767 -0.607171
                  }
                }
              }
            }
          }
        }
      }
      JOINT lCollar
      {
        OFFSET 2.68224 19.2634 -4.8768
        CHANNELS 3 Zrotation Xrotation Yrotation
        JOINT lShldr
        {
          OFFSET 8.77824 -1.95073 1.46304
          CHANNELS 3 Zrotation Xrotation Yrotation
          JOINT lForeArm
          {
            OFFSET 28.1742 -1.7115 0.48768
            CHANNELS 3 Zrotation Xrotation Yrotation
            JOINT lHand
            {
              OFFSET 22.5879 0.773209 7.07136
              CHANNELS 3 Zrotation Xrotation Yrotation
              JOINT lThumb1
              {
                OFFSET 1.2192 -0.487915 3.41376
                CHANNELS 3 Zrotation Xrotation Yrotation
                JOINT lThumb2
                {
                  OFFSET 3.37035 -0.52449 3.41376
                  CHANNELS 3 Zrotation Xrotation Yrotation
                  End Site
                  {
                    OFFSET 1.78271 -1.18214 1.43049
                  }
                }
              }
              JOINT lIndex1
              {
                OFFSET 7.75947 0.938293 5.60832
                CHANNELS 3 Zrotation Xrotation Yrotation
                JOINT lIndex2
                {
                  OFFSET 2.54057 -0.884171 1.56538
                  CHANNELS 3 Zrotation Xrotation Yrotation
                  End Site
                  {
                    OFFSET 1.62519 -0.234802 1.16502
                  }
                }
              }
              JOINT lMid1
              {
                OFFSET 8.24714 1.18213 3.41376
                CHANNELS 3 Zrotation Xrotation Yrotation
                JOINT lMid2
                {
                  OFFSET 3.10165 -0.590103 1.0647
                  CHANNELS 3 Zrotation Xrotation Yrotation
                  End Site
                  {
                    OFFSET 2.48547 -0.328903 0.83742
                  }
                }
              }
              JOINT lRing1
              {
                OFFSET 8.82822 0.546677 1.51678
                CHANNELS 3 Zrotation Xrotation Yrotation
                JOINT lRing2
                {
                  OFFSET 2.60934 -0.819778 -0.0198488
                  CHANNELS 3 Zrotation Xrotation Yrotation
                  End Site
                  {
                    OFFSET 2.33842 -0.294052 0.168128
                  }
                }
              }
              JOINT lPinky1
              {
                OFFSET 8.27202 -0.0477905 -0.4584
                CHANNELS 3 Zrotation Xrotation Yrotation
                JOINT lPinky2
                {
                  OFFSET 1.82734 -0.647385 -0.700984
                  CHANNELS 3 Zrotation Xrotation Yrotation
                  End Site
                  {
                    OFFSET 1.69225 -0.51767 -0.607171
                  }
                }
              }
            }
          }
        }
      }
    }
  }
  JOINT rButtock
  {
    OFFSET -8.77824 4.35084 1.2192
    CHANNELS 3 Zrotation Xrotation Yrotation
    JOINT rThigh
    {
      OFFSET 0 -1.70687 -2.19456
      CHANNELS 3 Zrotation Xrotation Yrotation
      JOINT rShin
      {
        OFFSET 0 -36.8199 0.73152
        CHANNELS 3 Zrotation Xrotation Yrotation
        JOINT rFoot
        {
          OFFSET 0.73152 -45.1104 -5.12064
          CHANNELS 3 Zrotation Xrotation Yrotation
          End Site
          {
            OFFSET -1.1221 -3.69964 12.103
          }
        }
      }
    }
  }
  JOINT lButtock
  {
    OFFSET 8.77824 4.35084 1.2192
    CHANNELS 3 Zrotation Xrotation Yrotation
    JOINT lThigh
    {
      OFFSET 0 -1.70687 -2.19456
      CHANNELS 3 Zrotation Xrotation Yrotation
      JOINT lShin
      {
        OFFSET 0 -36.8199 0.73152
        CHANNELS 3 Zrotation Xrotation Yrotation
        JOINT lFoot
        {
          OFFSET -0.73152 -45.1104 -5.12064
          CHANNELS 3 Zrotation Xrotation Yrotation
          End Site
          {
            OFFSET 1.1221 -3.69964 12.103
          }
        }
      }
    }
  }
}
MOTION
Frames:	4
Frame Time:	0.03333
-1.014263927936554 33.85096788406372 2.591708116233349 -2.947808687043834 3.0015543784056065 1.8302531350463478 -1.188815982825287 8.758559893477036 1.5480826525074884 1.0620442567352655 -5.088158813711107 0.047608446227398724 -2.8631935288413657 9.0122809305755 -3.0115477989349815 4.560207388983924 -14.436284414644366 -2.7794846513643936 -0.49406920413227706 0.07579919158287349 -0.2405396791348382 0.1401670477335257 -0.3188153012096239 -0.24397998672283544 0.8694945539259947 0.23384684080016616 0.4844981881143851 27.53511875205727 16.370488119659843 8.757922978336932 -13.651332608243466 -16.08045779693359 36.10077019771105 -1.866957290985527 -7.003674267383782 -4.130073237794609 0.2877979180847151 -0.10103331880137899 -1.19172393586442 -0.5773628274520536 -0.39803066126466824 1.2713468661138438 -0.17002883488801981 -1.488347205408732 -0.07122555951043676 5.180931992546921 2.7091031805054087 -0.2324993191821167 0.13238368698853917 0.36864217153510165 -0.3248469185357005 1.5972114561554498 0.30356071402863516 0.11291812810167885 1.0268802017322185 0.1416879787832568 -0.6623190682261995 5.6424756224081865 1.4872030420010491 -0.3463729533960833 -0.6002379847560726 -0.09743546329522187 0.6862963939466763 2.0538114164398005 0.30563810539252395 0.006746626074385876 1.0199101004059261 -0.37698738204038784 -1.007446926161357 -31.82744526801965 17.522505391114628 -13.542707841004523 12.44184697888584 -16.36610996840186 -34.04925799370061 3.1758806562616075 -6.528292674264072 3.612667198259103 -0.5366547932770719 -0.2060219307820036 -0.5987407859456646 -0.2515056012081466 0.25082831858283106 0.14399671612485335 -0.42740663787423194 -0.2610196011547247 0.5039377602658877 -3.4226427978128857 2.5460112831736095 -0.7590264893847934 -0.7387230050249901 -0.4090795061033688 0.5003581008105663 -2.4658470604324623 1.1250761238821994 -0.4534411578757785 -0.7569156941269951 0.8139471333663668 -0.9192553101547408 -5.425019047821082 -0.7854794385142826 0.461793038487676 -0.5793748517711513 -0.45140896315428813 -0.6586832731536371 -1.0597964841680967 -0.914019009660574 -0.7609714924726604 0.7586499752067966 -1.0059265687407946 0.726229521815979 -16.388069026583455 -20.708284912474287 -13.95570974332133 -2.6713663853410883 34.38227411196833 3.9063785660611683 -1.7356347379175727 -5.653887160963985 -5.195373146886444 0.1526931477638663 0.12903067775587115 -1.12022188709473 20.63115158617733 -18.77232584884212 17.217831142807867 3.585422000546745 35.367279597837964 -2.333253665292063 3.0527297842053387 -6.185165741590611 7.9732401106346025
-1.6596938483417034 40.593913197517395 4.733259044587612 -3.749708967539885 3.6070045445503394 1.9157220668950676 -1.3644198262211977 10.269517266194331 2.3729686539947483 1.2822011039220518 -6.178362873177278 0.3585708441605063 -3.434086779767242 10.556658418901668 -3.0427192882030387 5.480062261681746 -16.869252438516266 -3.4840163163736815 -0.4271823888899587 0.16374874275045753 -0.15372174490440113 0.20325806538588884 -0.3183978592574598 -0.1576691273372057 0.6562114917260329 0.2122273444059453 0.26212793274969154 32.756610542329845 19.72855062509661 10.512975944064852 -16.218750344606132 -19.197247285034244 43.30873371562262 -2.5239903264026653 -7.94710866064378 -4.419182765643379 0.20943988017263962 -0.09776252530280236 -0.8207921568534833 -0.3242477028381642 -0.1917909114811647 0.9271216603661856 -0.019366894669865374 -1.0770506092286067 -0.08039823676149943 5.977364066282143 3.34336649966384 -0.05728821166348195 0.00911848930495214 0.17977025878961825 -0.23633905943442746 2.0216215886551767 0.42398554019327533 0.20133914241487227 0.7828248961655278 0.08150686184115712 -0.5794095363255303 6.7133229257665405 1.2071405265947852 -0.40285562962432686 -0.3967512814557602 -0.059857950276780245 0.5962531029838991 2.053158919930653 0.0709270322189396 0.07239325505424449 0.8141000655707517 -0.28552816084615523 -0.8857386647629891 -38.32330009325486 21.027659435422205 -16.556677368887097 14.892827919146358 -18.980050684522425 -41.018243437837185 3.730156270380254 -8.235482662496302 3.6929722936518816 -0.3911325437289256 -0.2522048951852795 -0.6327716165158713 -0.1917451545498109 0.33703637828536676 -0.04500849203115106 -0.4947431517042869 -0.31121495484983935 0.3503196554780135 -4.468436967295633 3.2500223597020956 -0.7633284947056966 -0.5971303020445696 -0.42147928765470377 0.3103098480631069 -2.5751226166332617 1.0719659602783553 -0.4290352377848833 -0.5537994218674501 0.7123028728200288 -0.7368755989370603 -6.693041532799834 -0.3664189449602625 0.38952419426194623 -0.4227074944056896 -0.47295858351164854 -0.6841200715615281 -1.335096330010452 -0.9254855098948502 -0.6820377176383204 0.6176273795786607 -0.8144460039800423 0.6238251892810653 -20.160525939154066 -24.397032734124515 -17.22110621851489 -3.3382054379722494 41.30938708139815 4.501352502679571 -2.3634302948188255 -6.648754586221471 -6.308171472127016 0.23642227568451055 0.08862535302923184 -0.8422082149960582 24.911653337139125 -22.258217052142967 20.363858963198055 4.0723927171406755 41.92040214416915 -3.3518205663090237 3.792957725364406 -7.239104057884952 9.566060715649085
-2.008153311908245 46.20744287967682 6.442554295063019 -4.513109819562102 3.957018015454466 1.978150636239219 -1.528258241884938 11.437493274644853 2.9116991844492692 1.5842501049882927 -7.107515340882779 0.634254301174293 -3.842217903432184 11.760496335589341 -3.0624604558950796 6.203942358505799 -18.935179756770026 -3.749192434483903 -0.29435527321389754 0.17483408641253534 -0.07801295327643115 0.1199489407383475 -0.22329385168695268 -0.06673033454121634 0.4547265674610631 0.17248332739928735 0.14425204780593548 36.960107033041616 22.505813117103223 12.074662839295124 -18.29084020103853 -21.923872462081675 49.50857497241865 -3.1718149861581573 -9.112887909502495 -4.729218712448597 0.14018701803272007 0.05392543739473493 -0.577823651777618 -0.15411094562517286 -0.06550343513112634 0.5942337148671025 0.055398223614945376 -0.8026189444627834 -0.06766404274509823 6.506713545355063 3.8653995654752076 0.0778133036453405 -0.05387250342866733 0.10493091555843652 -0.19637311464059698 2.374101184736501 0.4940131218758889 0.3221825044291609 0.5732436897740071 0.07139535374433505 -0.4380523681497695 7.594185102266405 0.9970480698717183 -0.34319072557309205 -0.26406023595457045 -0.059375621527500984 0.5077648006352105 2.110810412280615 -0.07578889960837219 0.029733547684784454 0.6774857167216243 -0.16981264339253302 -0.6955158153048713 -43.420369742511895 23.74429546080849 -19.365894900925614 16.997916127006384 -21.18142577665941 -46.87781150037235 4.249181064749054 -9.711489957230643 3.7676898674167667 -0.29460372134495677 -0.28656939116861196 -0.5032160013696877 -0.14137222927648918 0.34341510795949753 -0.12467299038497658 -0.4225868188368772 -0.2406877821820364 0.22144716597053693 -5.358357682182227 3.7793835781626517 -0.784502134493589 -0.4694472793088802 -0.4310234098027388 0.17353354902545615 -2.6951012927068825 1.0505104151046412 -0.2990639415946809 -0.47748459769298696 0.5487476965634324 -0.5956021005786322 -7.623360255306114 -0.09876293457279765 0.32749412376718295 -0.30411892191072504 -0.34114468371027656 -0.5610484937326551 -1.4922046614642026 -0.8830745174607139 -0.4600461108857395 0.4447914169830449 -0.574951343788216 0.47559018069366044 -23.195998610091134 -27.519679109438457 -20.005992909182527 -3.964625992416214 46.93720341030019 5.100902239155059 -2.9480530797500735 -7.5765683368496495 -7.358361722114314 0.19696915536738638 0.049210679206615454 -0.6233305341747684 28.41926624954791 -25.32971214076268 23.143711804447392 4.521755131504046 47.46697678798848 -4.19663428503003 4.225915732888698 -8.036855638790454 10.753142470755424
-2.1098317578434944 51.050710678100586 7.780437543988228 -5.2468505751135375 4.146952769667827 2.0264439156526173 -1.6734000819128263 12.394856984943445 3.2889181525912026 1.9432547728828007 -7.908025464439321 0.8703834390134484 -4.165209011545625 12.717631234550737 -3.068234953951502 6.781691411811075 -20.736322839017188 -3.7469653659276556 -0.15795532827168512 0.15083693713520957 -0.028462412127648058 -0.03655553262366525 -0.08450675562982077 0.02357783969531046 0.25662130617478035 0.13112076900274794 0.08202656986788634 40.42310856488646 24.848497992978604 13.480547143141882 -20.037893307701072 -24.378041393137295 54.95883028856246 -3.8240205719359777 -10.39843537923103 -5.06297590624127 0.06348167245637613 0.27887745090484045 -0.40235150296664174 -0.03949204705930794 0.017407590873423747 0.2930927020736501 0.0893266547084548 -0.6111034283433877 -0.051440319088961406 6.877175321973738 4.316721390356725 0.15992999999375926 -0.04903555555753471 0.062098905994992334 -0.19014456908692717 2.669134621029787 0.5349909485230862 0.4618369011087522 0.386917676680793 0.08736663054049916 -0.26992293950082147 8.347568628097152 0.8134543992507739 -0.22575437397459688 -0.15042659217647988 -0.07906748379147087 0.42232340298658216 2.175845979453595 -0.1733053780184954 -0.0713605091073974 0.52904286761221 -0.06412491085754737 -0.47113076085672967 -47.524063509071446 25.910462635321355 -22.025795959971187 18.859931562683993 -23.078935997906285 -51.96199258266557 4.741085312357848 -11.017791810525909 3.841769672267902 -0.23481918226154094 -0.3024496343497445 -0.2898251502468866 -0.09191899164295232 0.3192223377954744 -0.14545442790412216 -0.3041073692860742 -0.12780431195431008 0.13384716173992017 -6.142436505029834 4.169252483534272 -0.8085776975442377 -0.35517271832671915 -0.4225546422425841 0.09892728599970109 -2.812391008681634 1.0485024462103631 -0.12279986436595347 -0.47839530736927294 0.3697201141243472 -0.4746463872885822 -8.339458632231407 0.08571119012084376 0.26857237631415726 -0.22097081363678142 -0.1409047748649532 -0.3631362920121309 -1.6047676730898937 -0.8052779157623282 -0.15319185829498302 0.2502179504670405 -0.31332158796111226 0.3163739888290204 -25.6956429406407 -30.20911049136058 -22.39705601494911 -4.542094581078697 51.662744919654386 5.72743976058856 -3.4818159282438796 -8.427080567772562 -8.36391839342287 0.10475887349861021 0.016563068665042084 -0.44807887240793665 31.403030973373394 -28.09534111306547 25.625713756370818 4.9316732034105915 52.28321296423668 -4.911084878818058 4.476319432484651 -8.635075195925083 11.68048749965181
